<svg width="21" height="21" viewBox="0 0 21 21" fill="none" xmlns="http://www.w3.org/2000/svg">
<g clip-path="url(#clip0_1_482)">
<path fill-rule="evenodd" clip-rule="evenodd" d="M15.3157 5.36179C15.6057 5.55179 15.6857 5.93878 15.4967 6.22778L9.83065 14.8938C9.78113 14.9695 9.71576 15.0336 9.63905 15.0816C9.56234 15.1296 9.47613 15.1604 9.38636 15.1718C9.2966 15.1832 9.20543 15.175 9.11915 15.1477C9.03287 15.1204 8.95355 15.0747 8.88665 15.0138L5.22065 11.6818C5.1034 11.569 5.03473 11.415 5.02923 11.2524C5.02372 11.0899 5.08182 10.9315 5.19118 10.8111C5.30054 10.6907 5.45254 10.6177 5.61489 10.6075C5.77724 10.5974 5.93715 10.6509 6.06065 10.7568L9.18565 13.5968L14.4507 5.54479C14.4955 5.47603 14.5534 5.41679 14.6212 5.37043C14.6889 5.32408 14.7651 5.29152 14.8455 5.27462C14.9258 5.25772 15.0086 5.25681 15.0893 5.27194C15.17 5.28706 15.2469 5.31693 15.3157 5.36179Z" fill="#909090"/>
</g>
<defs>
<clipPath id="clip0_1_482">
<rect width="20" height="20" fill="white" transform="translate(0.140625 0.21875)"/>
</clipPath>
</defs>
</svg>
