<svg width="10" height="13" viewBox="0 0 10 13" fill="none" xmlns="http://www.w3.org/2000/svg">
<g clip-path="url(#clip0_1_813)">
<mask id="mask0_1_813" style="mask-type:luminance" maskUnits="userSpaceOnUse" x="0" y="1" width="9" height="12">
<path d="M7.09581 1.04211H1.84986C0.836842 1.04211 0.015625 1.8633 0.015625 2.87629V10.7266C0.015625 11.7395 0.836842 12.5607 1.84986 12.5607H7.09581C8.10883 12.5607 8.93005 11.7395 8.93005 10.7266V2.87629C8.93005 1.8633 8.10883 1.04211 7.09581 1.04211Z" fill="white"/>
</mask>
<g mask="url(#mask0_1_813)">
<path d="M7.09581 1.04211H1.84986C0.836842 1.04211 0.015625 1.8633 0.015625 2.87629V10.7266C0.015625 11.7395 0.836842 12.5607 1.84986 12.5607H7.09581C8.10883 12.5607 8.93005 11.7395 8.93005 10.7266V2.87629C8.93005 1.8633 8.10883 1.04211 7.09581 1.04211Z" fill="black"/>
<path d="M15.5243 2.86128L3.17511 15.21L3.83198 15.8668L16.1812 3.51813L15.5243 2.86128Z" fill="#FF6C00" fill-opacity="0.6"/>
<path opacity="0.5" d="M15.5243 1.56111L3.17511 13.9098L3.83198 14.5666L16.1812 2.21795L15.5243 1.56111Z" fill="#FF6C00"/>
<path opacity="0.4" d="M14.2231 1.56111L1.87396 13.9098L2.53083 14.5666L14.88 2.21795L14.2231 1.56111Z" fill="#FF6C00"/>
<path opacity="0.35" d="M12.9224 1.56111L0.573181 13.9098L1.23005 14.5666L13.5792 2.21795L12.9224 1.56111Z" fill="#FF6C00"/>
<path opacity="0.3" d="M12.5509 0.63197L0.201721 12.9807L0.858594 13.6375L13.2078 1.28882L12.5509 0.63197Z" fill="#FF6C00"/>
<path opacity="0.25" d="M12.3652 -0.482654L0.0159912 11.866L0.672864 12.5229L13.022 0.174192L12.3652 -0.482654Z" fill="#FF6C00"/>
<path opacity="0.2" d="M11.8077 -1.22588L-0.541504 11.1228L0.115369 11.7796L12.4645 -0.569033L11.8077 -1.22588Z" fill="#FF6C00"/>
<path opacity="0.15" d="M10.5073 -1.22588L-1.84192 11.1228L-1.18505 11.7796L11.1641 -0.569033L10.5073 -1.22588Z" fill="#FF6C00"/>
<path opacity="0.1" d="M9.20648 -1.22588L-3.1427 11.1228L-2.48583 11.7796L9.86335 -0.569033L9.20648 -1.22588Z" fill="#FF6C00"/>
</g>
<path d="M7.09581 1.3208H1.84986C0.990756 1.3208 0.294312 2.01722 0.294312 2.8763V10.7266C0.294312 11.5856 0.990756 12.2821 1.84986 12.2821H7.09581C7.95492 12.2821 8.65136 11.5856 8.65136 10.7266V2.8763C8.65136 2.01722 7.95492 1.3208 7.09581 1.3208Z" stroke="url(#paint0_linear_1_813)" stroke-width="1.4244"/>
</g>
<defs>
<linearGradient id="paint0_linear_1_813" x1="4.47282" y1="1.04212" x2="4.47282" y2="12.5608" gradientUnits="userSpaceOnUse">
<stop stop-color="#FF9B51"/>
<stop offset="1" stop-color="#FF6C00"/>
</linearGradient>
<clipPath id="clip0_1_813">
<rect width="9" height="12.13" fill="white" transform="translate(0.015625 0.6875)"/>
</clipPath>
</defs>
</svg>
