<svg width="120" height="46" viewBox="0 0 120 46" fill="none" xmlns="http://www.w3.org/2000/svg">
<path d="M75.9585 30.375C75.8153 30.3752 75.6736 30.3472 75.5413 30.2925C75.409 30.2379 75.2887 30.1577 75.1875 30.0566C75.0862 29.9554 75.0058 29.8353 74.951 29.7031C74.8962 29.5709 74.868 29.4291 74.868 29.286V8.964C74.8784 8.68198 74.9978 8.415 75.2011 8.21917C75.4043 8.02335 75.6755 7.91394 75.9577 7.91394C76.2399 7.91394 76.5112 8.02335 76.7144 8.21917C76.9176 8.415 77.037 8.68198 77.0475 8.964V29.286C77.0477 29.4292 77.0196 29.571 76.9648 29.7033C76.9101 29.8356 76.8297 29.9558 76.7284 30.057C76.6271 30.1582 76.5068 30.2384 76.3744 30.2929C76.242 30.3475 76.1017 30.3754 75.9585 30.375ZM94.581 27.5235C94.7671 27.3031 94.8585 27.0181 94.8351 26.7306C94.8118 26.4431 94.6757 26.1765 94.4565 25.989C94.3476 25.8961 94.2214 25.8255 94.0851 25.7815C93.9489 25.7374 93.8053 25.7207 93.6626 25.7322C93.5199 25.7438 93.3809 25.7834 93.2535 25.8489C93.1262 25.9143 93.013 26.0042 92.9205 26.1135C91.7955 27.438 90.111 28.1985 88.3005 28.1985C86.8567 28.1973 85.4725 27.6233 84.4516 26.6024C83.4307 25.5815 82.8567 24.1972 82.8555 22.7535C82.8575 21.3103 83.4319 19.9268 84.4526 18.9066C85.4734 17.8863 86.8573 17.3127 88.3005 17.3115C89.4649 17.3127 90.5927 17.7189 91.4903 18.4606C92.388 19.2023 92.9997 20.2332 93.2205 21.3765H86.556C86.4129 21.3759 86.2712 21.4036 86.1389 21.458C86.0066 21.5125 85.8864 21.5925 85.7851 21.6936C85.6839 21.7947 85.6037 21.9148 85.5491 22.047C85.4945 22.1792 85.4666 22.321 85.467 22.464C85.4666 22.6071 85.4945 22.7489 85.5491 22.8812C85.6036 23.0135 85.6838 23.1337 85.785 23.2349C85.8862 23.3361 86.0065 23.4163 86.1388 23.4709C86.2711 23.5255 86.4128 23.5534 86.556 23.553H94.3965C94.685 23.5522 94.9616 23.4372 95.1656 23.2332C95.3697 23.0291 95.4847 22.7526 95.4855 22.464V22.3185C95.4855 18.357 92.262 15.1335 88.299 15.1335C86.2784 15.1355 84.341 15.9388 82.9119 17.3674C81.4829 18.7959 80.6787 20.7329 80.676 22.7535C80.676 26.9565 84.096 30.3735 88.299 30.3735C90.7515 30.3735 93.042 29.3355 94.581 27.5235ZM71.2395 29.286V22.3185C71.2395 18.3555 68.0145 15.1335 64.0515 15.1335C62.0308 15.1355 60.0935 15.9388 58.6644 17.3674C57.2354 18.7959 56.4312 20.7329 56.4285 22.7535C56.4285 26.9565 59.8485 30.3735 64.0515 30.3735C64.3399 30.3735 64.6165 30.2589 64.8204 30.055C65.0244 29.851 65.139 29.5744 65.139 29.286C65.139 28.9976 65.0244 28.721 64.8204 28.517C64.6165 28.3131 64.3399 28.1985 64.0515 28.1985C62.6077 28.1973 61.2235 27.6233 60.2026 26.6024C59.1817 25.5815 58.6077 24.1972 58.6065 22.7535C58.6085 21.3103 59.1828 19.9268 60.2036 18.9066C61.2244 17.8863 62.6082 17.3127 64.0515 17.3115C65.3793 17.3127 66.6525 17.8405 67.5917 18.7792C68.5309 19.7178 69.0595 20.9907 69.0615 22.3185V29.286C69.0615 29.429 69.0896 29.5706 69.1444 29.7027C69.1991 29.8349 69.2793 29.9549 69.3804 30.056C69.4815 30.1572 69.6016 30.2374 69.7337 30.2921C69.8658 30.3468 70.0075 30.375 70.1505 30.375C70.2935 30.375 70.4351 30.3468 70.5672 30.2921C70.6993 30.2374 70.8194 30.1572 70.9205 30.056C71.0216 29.9549 71.1018 29.8349 71.1566 29.7027C71.2113 29.5706 71.2395 29.429 71.2395 29.286ZM38.277 26.0205C38.277 24.957 37.887 23.508 36.027 22.6365C34.911 22.1145 33.51 21.9 32.157 21.6915C28.983 21.2055 27.8565 20.799 27.8565 19.4865C27.8565 18.0585 29.8395 17.3115 31.7985 17.3115C33.033 17.3115 34.806 17.559 36.249 18.7455C36.4721 18.9289 36.759 19.0161 37.0465 18.988C37.334 18.9599 37.5986 18.8187 37.782 18.5955C37.9654 18.3723 38.0526 18.0854 38.0245 17.7979C37.9963 17.5104 37.8551 17.2459 37.632 17.0625C35.6925 15.468 33.3885 15.132 31.7985 15.132C27.594 15.132 25.6785 17.3895 25.6785 19.4865C25.6785 20.556 26.0715 22.0155 27.939 22.8915C29.061 23.4195 30.4665 23.6355 31.827 23.844C34.98 24.327 36.099 24.729 36.099 26.019C36.099 27.3225 34.5435 28.197 32.229 28.197C29.8605 28.197 28.0545 27.237 27.189 26.664C26.9484 26.52 26.6615 26.4743 26.3881 26.5364C26.1147 26.5986 25.8758 26.7638 25.7211 26.9977C25.5665 27.2316 25.508 27.5162 25.5579 27.7921C25.6078 28.068 25.7622 28.3141 25.989 28.479C27.8405 29.7029 30.0081 30.3617 32.2275 30.375C36.405 30.375 38.277 28.188 38.277 26.0205ZM54.066 27.1605C54.1451 27.0413 54.1999 26.9077 54.2274 26.7674C54.2548 26.627 54.2544 26.4826 54.226 26.3424C54.1977 26.2022 54.142 26.069 54.0622 25.9503C53.9823 25.8316 53.8799 25.7298 53.7607 25.6508C53.6415 25.5717 53.508 25.5168 53.3676 25.4894C53.2272 25.4619 53.0828 25.4624 52.9426 25.4907C52.8024 25.519 52.6692 25.5747 52.5505 25.6546C52.4318 25.7344 52.3301 25.8368 52.251 25.956C51.7944 26.6453 51.1742 27.2108 50.4458 27.6019C49.7173 27.9929 48.9033 28.1974 48.0765 28.197C46.633 28.1958 45.249 27.622 44.2281 26.6014C43.2073 25.5809 42.6331 24.197 42.6315 22.7535C42.6331 21.31 43.2073 19.9261 44.2281 18.9056C45.249 17.885 46.633 17.3112 48.0765 17.31C49.758 17.31 51.3195 18.1485 52.2525 19.551C52.3721 19.7296 52.5418 19.8688 52.7403 19.9512C52.9389 20.0336 53.1573 20.0555 53.3682 20.0141C53.5791 19.9728 53.7731 19.87 53.9258 19.7188C54.0785 19.5675 54.1831 19.3745 54.2265 19.164C54.2834 18.881 54.2257 18.587 54.066 18.3465C53.4112 17.3576 52.5216 16.5464 51.4766 15.9854C50.4317 15.4245 49.264 15.1312 48.078 15.132C46.0571 15.134 44.1195 15.9376 42.6904 17.3664C41.2613 18.7952 40.4573 20.7326 40.455 22.7535C40.455 26.9565 43.875 30.3735 48.0765 30.3735C50.49 30.3735 52.728 29.172 54.066 27.1605Z" fill="#909090"/>
</svg>
