<svg width="93" height="29" viewBox="0 0 93 29" fill="none" xmlns="http://www.w3.org/2000/svg">
<g clip-path="url(#clip0_1_33)">
<path d="M29.3114 20.765H33.0633C35.3306 20.765 36.9272 19.4399 36.9272 17.556C36.9272 16.151 35.9053 15.1133 34.4046 14.9057C35.586 14.6662 36.4482 13.7242 36.4482 12.5747C36.4482 10.6428 34.8995 9.42944 32.4248 9.42944H29.3114V20.765ZM30.7164 19.392V15.688H33.0633C34.4684 15.688 35.4583 16.4064 35.4583 17.556C35.4583 18.6895 34.4684 19.392 33.0633 19.392H30.7164ZM30.7164 14.3149V10.8025H32.4248C33.9894 10.8025 34.9793 11.489 34.9793 12.5747C34.9793 13.6444 33.9894 14.3149 32.4248 14.3149H30.7164Z" fill="#E8E8E8"/>
<path d="M39.9575 18.5139C39.9575 17.3005 40.9793 17.3165 42.2247 17.077L44.2045 16.7098V17.2686C44.2045 18.8332 43.1188 19.7432 41.7457 19.8071C40.5163 19.871 39.9575 19.1685 39.9575 18.5139ZM38.5206 18.5139C38.5206 20.0307 39.8936 20.9247 41.5701 20.9566C42.8953 20.9247 43.8852 20.2382 44.2524 19.4718L44.3003 20.765H45.5457V15.656C45.5457 13.2931 44.1725 12.1117 42.1289 12.1117C40.3727 12.1117 38.9995 13.1814 38.6643 14.7939L40.1491 14.9057C40.3567 14.0436 41.107 13.4209 42.1289 13.4209C43.3583 13.4209 44.1566 14.1074 44.1725 15.5124L41.7138 15.9594C39.8457 16.2947 38.5206 16.7257 38.5206 18.5139Z" fill="#E8E8E8"/>
<path d="M52.865 14.9217L54.2382 14.8258C53.9667 13.1814 52.6096 12.1117 50.8373 12.1117C49.1129 12.1117 47.5802 13.0696 47.5802 14.7939C47.5802 16.3585 49.2407 16.9013 50.7735 17.2686C51.6676 17.4761 52.849 17.6039 52.849 18.5299C52.849 19.424 51.8751 19.6475 50.981 19.6475C49.8155 19.6475 48.9054 19.0089 48.7298 18.003L47.3088 18.0988C47.4366 19.855 49.0331 20.9566 50.981 20.9566C52.6415 20.9566 54.286 20.2702 54.286 18.6097C54.286 16.9812 52.5936 16.4703 51.0129 16.0712C50.1188 15.8316 49.0172 15.6401 49.0172 14.714C49.0172 13.8519 49.8314 13.4209 50.6936 13.4209C51.7634 13.4209 52.6734 13.9797 52.865 14.9217Z" fill="#E8E8E8"/>
<path d="M59.4367 20.9566C61.0652 20.9566 62.5022 19.9667 62.9972 18.3702L61.5282 18.2585C61.1451 19.1366 60.3308 19.6475 59.4367 19.6475C57.9998 19.6475 57.1376 18.6576 57.0099 16.9653H63.1249V16.3745L63.1089 16.3426C62.9652 13.3091 61.2888 12.1117 59.4367 12.1117C57.0897 12.1117 55.5569 13.8359 55.5569 16.5342C55.5569 19.2324 57.0897 20.9566 59.4367 20.9566ZM57.0418 15.7518C57.2653 14.283 58.1115 13.4209 59.4367 13.4209C60.4425 13.4209 61.3845 13.9957 61.624 15.7518H57.0418Z" fill="#E8E8E8"/>
<path d="M64.7986 20.765H66.2036V15.7518H71.3767V20.765H72.7817V9.42944H71.3767V14.3788H66.2036V9.42944H64.7986V20.765Z" fill="#E8E8E8"/>
<path d="M81.6532 20.765V12.3033H80.2801V17.3484C80.2801 18.913 79.4019 19.7432 78.1087 19.7432C76.8953 19.7432 76.3843 18.913 76.3843 17.3484V12.3033H75.0113V17.7475C75.0113 19.5357 75.9373 20.9566 77.8214 20.9566C78.923 20.9566 79.8969 20.4617 80.344 19.3761V20.765H81.6532Z" fill="#E8E8E8"/>
<path d="M83.7761 9.42944V20.765H85.0215L85.0694 19.5836C85.5324 20.4458 86.4265 20.9566 87.7357 20.9566C90.1945 20.9566 91.3124 18.8492 91.3124 16.5342C91.3124 14.2192 90.1945 12.1117 87.7357 12.1117C86.4904 12.1117 85.6282 12.5587 85.1492 13.3889V9.42944H83.7761ZM85.0215 16.5342C85.0215 14.9057 85.708 13.357 87.4483 13.357C89.2046 13.357 89.8752 14.8897 89.8752 16.5342C89.8752 18.1148 89.2046 19.6475 87.4483 19.6475C85.708 19.6475 85.0215 18.0988 85.0215 16.5342Z" fill="#E8E8E8"/>
<mask id="mask0_1_33" style="mask-type:luminance" maskUnits="userSpaceOnUse" x="1" y="1" width="21" height="28">
<path d="M17.3199 1.83301H5.22794C2.89291 1.83301 1 3.72587 1 6.06083V24.1559C1 26.4909 2.89291 28.3837 5.22794 28.3837H17.3199C19.6549 28.3837 21.5478 26.4909 21.5478 24.1559V6.06083C21.5478 3.72587 19.6549 1.83301 17.3199 1.83301Z" fill="white"/>
</mask>
<g mask="url(#mask0_1_33)">
<path d="M17.3199 1.83301H5.22794C2.89291 1.83301 1 3.72587 1 6.06083V24.1559C1 26.4909 2.89291 28.3837 5.22794 28.3837H17.3199C19.6549 28.3837 21.5478 26.4909 21.5478 24.1559V6.06083C21.5478 3.72587 19.6549 1.83301 17.3199 1.83301Z" fill="black"/>
<path d="M36.7476 6.02626L8.28264 34.4903L9.79674 36.0044L38.2617 7.54031L36.7476 6.02626Z" fill="#FF6C00" fill-opacity="0.6"/>
<path opacity="0.5" d="M36.7476 3.02931L8.28264 31.4934L9.79674 33.0074L38.2617 4.54336L36.7476 3.02931Z" fill="#FF6C00"/>
<path opacity="0.4" d="M33.7484 3.02931L5.28343 31.4934L6.79753 33.0074L35.2625 4.54336L33.7484 3.02931Z" fill="#FF6C00"/>
<path opacity="0.35" d="M30.7501 3.02931L2.28511 31.4934L3.79921 33.0074L32.2642 4.54336L30.7501 3.02931Z" fill="#FF6C00"/>
<path opacity="0.3" d="M29.894 0.88768L1.42897 29.3517L2.94307 30.8658L31.4081 2.40173L29.894 0.88768Z" fill="#FF6C00"/>
<path opacity="0.25" d="M29.4659 -1.68156L1.00089 26.7825L2.51498 28.2966L30.98 -0.167515L29.4659 -1.68156Z" fill="#FF6C00"/>
<path opacity="0.2" d="M28.1807 -3.39479L-0.284241 25.0693L1.22986 26.5833L29.6948 -1.88074L28.1807 -3.39479Z" fill="#FF6C00"/>
<path opacity="0.15" d="M25.1833 -3.39479L-3.28166 25.0693L-1.76756 26.5833L26.6974 -1.88074L25.1833 -3.39479Z" fill="#FF6C00"/>
<path opacity="0.1" d="M22.185 -3.39479L-6.27998 25.0693L-4.76588 26.5833L23.6991 -1.88074L22.185 -3.39479Z" fill="#FF6C00"/>
</g>
<path d="M17.3199 2.47537H5.22794C3.24769 2.47537 1.64238 4.08064 1.64238 6.06084V24.1559C1.64238 26.1361 3.24769 27.7414 5.22794 27.7414H17.3199C19.3002 27.7414 20.9055 26.1361 20.9055 24.1559V6.06084C20.9055 4.08064 19.3002 2.47537 17.3199 2.47537Z" stroke="url(#paint0_linear_1_33)" stroke-width="1.4244"/>
</g>
<defs>
<linearGradient id="paint0_linear_1_33" x1="11.2739" y1="1.83301" x2="11.2739" y2="28.3838" gradientUnits="userSpaceOnUse">
<stop stop-color="#FF9B51"/>
<stop offset="1" stop-color="#FF6C00"/>
</linearGradient>
<clipPath id="clip0_1_33">
<rect width="92" height="27.96" fill="white" transform="translate(1 1.01562)"/>
</clipPath>
</defs>
</svg>
